<?xml version="1.0" encoding="UTF-8"?><svg id="Layer_1" xmlns="http://www.w3.org/2000/svg" viewBox="0 0 190.55 131.09"><defs><style>.cls-1{fill:#1d1d1b;}</style></defs><g><path class="cls-1" d="M58.3,71.01c-.12,1.34-.74,3.18-1.66,4.51-.88,1.32-2.62,3.24-4.36,4.17-1.04,.59-2.79,1.19-3.94,1.37-3.83,.59-6.25-2.24-6.68-5.06-.24-1.57-.17-2.95,.11-4.79,.7-4.64,2.68-7.73,7.29-8.44,1.75-.27,3.41,.98,3.68,2.74,.18,1.15,.9,5.2-1.04,5.5-.6,.09-1.42-.35-1.52-.99-.17-1.11,.23-2.21,.05-3.36l-.16-1.06c-.25-.39-1.28-.32-1.42-.3-2.9,.45-4.28,4.06-4.64,6.62-.23,1.55-.06,3.27,.37,4.52,.33,.94,1.35,2.29,2.59,2.1,1.41,.25,2.58,.17,3.87-.31,1.07-.4,3.48-3.14,4.06-3.98,.62-.9,.91-2.08,1.93-4.03,.25-.51,.21-.46,.67-.53,.55-.09,.75,.26,.82,.72,.03,.18,.02,.42,0,.61Z"/><path class="cls-1" d="M77.34,68.07c-.12,1.34-.74,3.18-1.66,4.51-1.15,1.69-3.66,4.39-5.83,4.73h-.05c-1.84,.29-3.22-.67-3.91-3.31-.15-.02-1.34,1.72-1.42,1.78-1.35,1.06-1.96,2.9-4.5,3.29-1.2,.19-2.41-.95-3.17-1.59l-.22-1.43c-.39-2.54-.11-5.6,.79-8.34,1.3-3.79,3.88-6.97,7.75-7.57,2.21-.34,2.6,2.76,3.2,4.23,.52-1.21,1.18-1.22,1.72-1.07,.5,.16,.4,1.07,.16,1.63-.75,1.58-2.47,5.67-2.37,7.87,.07,1.64,.88,2.65,2.03,2.47s3.43-3.13,4.06-3.98c.62-.9,.91-2.08,1.93-4.03,.25-.51,.21-.46,.67-.53,.55-.09,.75,.26,.82,.72,.03,.18,.02,.42,0,.61Zm-12.84-5.47c-2.17,.34-3.84,2.95-4.85,5.85-.91,2.64-1.31,5.54-1.04,7.29,.06,.37,.08,.51,.46,.83l.69-.11c.97-.15,1.95-.82,2.54-1.57,.48-.59,2.72-4.06,3.09-4.73,.69-1.66,.94-3.69,.68-5.39-.11-.69-.41-2.34-1.56-2.17Z"/><path class="cls-1" d="M86.99,51.09c-1.05,4.22-3.04,7.18-4.68,9.41-1.25,1.7-3.1,4.07-4.58,5.19-.14,.31-.57,1.5-.61,1.84-.18,1.59-.41,2.57-.22,3.76,.05,.32,.11,.74,.27,1.14,.36,1.08,1.87,1.41,3.07,1.22,.55-.09,1.15-.22,1.64-.4,1.21-.75,2.98-3.01,3.53-3.76,.62-.9,.86-2.07,1.93-4.03,.22-.41,.21-.46,.44-.49,.78-.12,.93,.19,1,.69,.03,.18,.06,.41,.05,.61-.12,1.34-.74,3.18-1.66,4.51-1.16,1.64-3.61,4.43-5.77,4.81-2.49,.39-4.94-.18-5.72-1.29-.48-.68-.89-1.47-.99-2.11-.21-1.38-.06-2.82,.26-4.76,.87-5.37,1.87-10.2,2.97-15.57,.2-.55,1.1-4.47,1.25-5.06,.6-2.5,2.04-7.87,5.13-8.35,1.52-.24,3.12,1.55,3.35,3.07,.5,3.23,.08,6.6-.65,9.54Zm-2.53-10.23c-1.38,.21-2.44,3.16-3.24,6.21-.59,2.26-.71,3.32-.96,4.49-.3,1.42-2.38,9.34-2.2,10.82,2.08-2.12,5.22-5.95,6.72-11.19,.58-2.03,1.26-6.8,.95-8.83-.11-.69-.3-1.65-1.27-1.5Z"/><path class="cls-1" d="M98.69,64.76c-.12,1.34-.74,3.18-1.66,4.51-1.15,1.69-3.66,4.39-5.88,4.73-.78,.12-1.53,.19-1.75-.01-1.49-.76-2.29-3.23-2.49-4.48-.69-4.47,1.74-8.58,2.82-12.62,.14-.31,.69-1,1.08-.92,.34,.09,1.1,.73,1.17,1.19l.02,.14c-1.33,3.93-3.42,8.08-2.78,12.23,.08,.51,.81,2.47,1.59,2.35,.51-.08,1-.25,1.47-.56,1.18-.94,2.56-2.71,2.98-3.34,.62-.9,1.04-2.1,1.93-4.03,.25-.51,.21-.46,.67-.53,.55-.09,.75,.26,.82,.72,.03,.18,.02,.42,0,.61Zm-6.41-12.75c-.92,.14-1.97-.83-2.12-1.8-.19-1.24,1.14-2.68,2.34-2.86,.97-.15,1.45,.25,1.6,1.22,.16,1.06-.58,3.25-1.83,3.45Z"/><path class="cls-1" d="M115.88,36.99c-.2,1.12-.46,2.2-.77,3.28-.91,3.3-3.16,10.07-4.15,13.44-1.04,3.32-1.85,6.66-1.89,10.06-.05,1.23,.04,2.4,.23,3.65,.09,.55,.67,1.88,1.45,1.76,2.11-.37,3.08-.85,5.49-4.15,.62-.9,1-2.37,1.88-4.3,.25-.51,.21-.46,.63-.52,.6-.09,.75,.26,.82,.72,.03,.18,.06,.41,.05,.61-.12,1.34-.74,3.18-1.66,4.51-1.93,2.8-3.86,4.66-6.95,5.13-4.01,.62-3.79-3.43-3.93-4.02-1.49,2.26-3.35,4.91-6.11,5.34-2.4,.37-3.66-2.27-3.96-4.25-.62-4.01,2.49-13.84,7.28-14.58,2.03-.31,2.36,1.81,3.46,1.64,.23-.04,.38-.01,.46-.35l4.15-14.71c.73-1.1,1.11-4.75,2.3-4.94,.78-.12,1.05,.4,1.15,1.05,.01,.09,.09,.55,.05,.65Zm-11.59,19.36c-.46,.07-.68,.15-1.16,.46-2.97,3.1-4.56,7.13-3.91,11.32,.04,.23,.58,1.89,.61,2.12,.15,.35,.64,.18,.87,.15,3.23-.5,6.47-8.55,6.05-11.27-.19-1.25-.89-3.02-2.46-2.78Z"/><path class="cls-1" d="M138.67,58.58c-.12,1.34-.74,3.18-1.66,4.51-1.15,1.69-3.66,4.39-5.83,4.73h-.05c-1.84,.29-3.22-.67-3.91-3.31-.15-.02-1.34,1.72-1.42,1.78-1.35,1.06-1.96,2.9-4.49,3.29-1.2,.19-2.41-.95-3.17-1.59l-.22-1.43c-.39-2.54-.11-5.6,.79-8.34,1.3-3.79,3.88-6.97,7.75-7.57,2.21-.34,2.6,2.76,3.2,4.23,.52-1.21,1.18-1.22,1.72-1.07,.5,.16,.4,1.07,.16,1.63-.75,1.58-2.47,5.67-2.37,7.87,.07,1.64,.88,2.65,2.03,2.47s3.44-3.13,4.06-3.98c.62-.9,.91-2.08,1.93-4.03,.25-.51,.21-.46,.67-.53,.55-.09,.75,.26,.82,.72,.03,.18,.02,.42,0,.61Zm-12.84-5.47c-2.17,.34-3.84,2.95-4.85,5.85-.91,2.64-1.31,5.54-1.04,7.29,.06,.37,.08,.51,.46,.83l.69-.11c.97-.15,1.95-.82,2.54-1.57,.48-.59,2.72-4.06,3.09-4.73,.69-1.66,.94-3.69,.68-5.39-.11-.69-.41-2.34-1.56-2.17Z"/><path class="cls-1" d="M155.44,30.87c-.21,1.12-.46,2.2-.77,3.28-.91,3.3-3.16,10.07-4.15,13.44-1.04,3.32-1.85,6.66-1.89,10.06-.05,1.23,.04,2.4,.23,3.65,.09,.55,.67,1.88,1.45,1.76,2.11-.37,3.08-.85,5.49-4.15,.62-.9,1-2.37,1.88-4.3,.25-.51,.21-.46,.63-.52,.6-.09,.75,.26,.82,.72,.03,.18,.06,.41,.05,.61-.12,1.34-.74,3.18-1.66,4.51-1.93,2.8-3.86,4.66-6.95,5.13-4.01,.62-3.79-3.43-3.93-4.02-1.49,2.26-3.35,4.91-6.11,5.34-2.4,.37-3.66-2.27-3.96-4.25-.62-4.01,2.49-13.84,7.28-14.58,2.03-.31,2.36,1.81,3.46,1.64,.23-.04,.38-.01,.46-.36l4.15-14.71c.73-1.1,1.11-4.75,2.3-4.94,.78-.12,1.05,.4,1.15,1.05,.01,.09,.09,.55,.05,.65Zm-11.59,19.36c-.46,.07-.69,.15-1.16,.46-2.97,3.1-4.56,7.13-3.91,11.32,.04,.23,.58,1.89,.61,2.12,.15,.35,.64,.18,.87,.15,3.23-.5,6.47-8.55,6.05-11.27-.19-1.25-.89-3.02-2.46-2.78Z"/></g><g><path class="cls-1" d="M67.63,102.8c-.14,1.33-.76,3.15-1.7,4.46-1.01,1.41-2.89,4.3-5.69,4.7-1.79,.26-7.11,.04-7.49-2.58-.07-.46-.16-1.15,.52-1.25l.14-.02c.14,.03,1.22,.34,1.36,.32h.28c1.51-.21,3.36-1.69,4.36-3.9,.96-2.15,1.06-5.02,.87-6.35-.13-.92-.59-1.18-1.42-1.06-1.15,.16-2.94,1.08-4.37,2.83-1.8,2.13-3.38,4.51-4.69,7.09-.95,1.87-1.27,4.49-1.63,5.57l-1.63,5.29c-.07,.2-.51,1.01-.63,1.17l-2.3,8.1c-.14,.35-.62,.6-.98,.66-.73,.11-1.16-.25-1.25-.9-.38-2.66,1.71-6.01,2.31-8.34,1.35-4.97,2.33-10.17,3.44-15.2,.04-.05,.07-.2,.08-.43-.4,1.13-.62,1.54-.81,2.18-.33,.98-.87,1.76-1.12,1.99-.29,.28-.98,.33-1.32-.09-.29-.38,.11-1.51,.21-1.81l.29-.56,.62-1.21c.59-1.11,.44-1.14,1.41-3.25,.75-1.65,1.36-3.24,2.12-4.47,.27-.69,.71-1.23,1.26-1.31,.92-.13,1.13,.35,1.25,1.18,.22,1.51-.64,4.03-1.13,5.5-.08,.43-.73,2.4-.91,2.8l.03,.23c.91-.83,2.15-3.59,3.67-5.77,1.55-2.24,3.52-3.22,6.22-3.61,1.24-.18,2.72,1.3,3.01,2.38,.49,1.76,.69,4.16,.25,6-.74,3.01-2.28,4.96-4.46,6.45l.31,.24s.87,.2,1.93,.05c1.51-.22,3.47-2.93,4.17-3.92,.62-.89,.88-2.05,1.96-3.98,.26-.51,.22-.45,.63-.51,.6-.09,.74,.27,.81,.73,.03,.18,.06,.41,.04,.6Z"/><path class="cls-1" d="M86.58,100.08c-.14,1.33-.76,3.15-1.7,4.46-1.17,1.67-3.69,4.32-5.84,4.63h-.05c-1.84,.27-3.19-.71-3.85-3.33-.14-.03-1.35,1.69-1.43,1.75-1.35,1.04-1.98,2.86-4.5,3.22-1.19,.17-2.39-.97-3.13-1.61l-.2-1.42c-.36-2.52-.05-5.57,.87-8.27,1.33-3.75,3.93-6.89,7.78-7.44,2.2-.32,2.55,2.77,3.14,4.23,.53-1.2,1.19-1.2,1.72-1.04,.49,.16,.39,1.07,.14,1.62-.76,1.56-2.52,5.61-2.44,7.8,.05,1.63,.85,2.64,1.99,2.48s3.45-3.07,4.07-3.91c.62-.89,.92-2.05,1.96-3.98,.26-.51,.22-.45,.67-.52,.55-.08,.74,.27,.81,.73,.03,.18,.01,.42,0,.61Zm-12.69-5.57c-2.16,.31-3.85,2.89-4.89,5.76-.94,2.62-1.37,5.49-1.12,7.23,.05,.37,.07,.5,.45,.83l.69-.1c.96-.14,1.95-.79,2.54-1.54,.48-.58,2.75-4,3.12-4.66,.7-1.65,.97-3.65,.73-5.35-.1-.69-.38-2.33-1.53-2.17Z"/><path class="cls-1" d="M100.48,98.08c-.14,1.33-.76,3.15-1.65,4.45-1.13,1.57-3.53,4.11-5.61,4.6-.27,.09-.54,.17-.81,.21-1.33,.19-3.02-.13-3.26-1.83-.22-1.51,.05-3.57,.79-5.59,.73-2.07,2.06-4.56,2.89-6.32-1.28,.51-3.02,.53-3.49,.5-.37,.38-.26,.46-.6,1.07-.34,.56-1.49,3.96-1.81,4.71-.63,1.45-.62,2.2-1.72,2.35-.32,.05-1.08-.03-1.08-.64l.02-.85c.52-.96,.45-.77,1.11-2.36,.92-2.1,1.61-3.79,2.16-5.13-.09-.31-.46-.26-.58-.43l-.45-.54c-.33-.37-.4-1.49-.47-1.99-.3-2.06,1.6-4.16,3.8-4.48,.92-.13,1.93,.75,2.07,1.67,.16,1.1,.02,1.45-.26,2.43-.25,.83-.44,1.14-.8,1.9,.48,.07,1.57-.13,2.03-.24,1.03-.29,1.33-1.17,2.52-1.35,.73-.11,1.1,.5,1.18,1.05,.07,.46-.08,.76-.35,1.13l-.12,.16c-.86,1.15-2.86,4.86-3.4,6.01-1,2.16-1.68,4.27-1.42,6.06,.09,.64,.75,.64,1.71,.5,1.1-.16,3.59-3.04,4.17-3.88,.62-.89,1.06-2.07,1.96-3.98,.26-.51,.22-.45,.67-.52,.55-.08,.74,.27,.81,.73,.03,.18,.01,.42,0,.61Zm-12.59-7.74c.07,.46,.83,.86,.87,.86,.41-.43,1.28-2.48,.65-3.28-1.44,.11-1.7,1.23-1.53,2.42Z"/><path class="cls-1" d="M119.43,95.36c-.14,1.33-.76,3.15-1.7,4.46-1.17,1.67-3.69,4.32-5.84,4.63h-.05c-1.84,.27-3.19-.71-3.85-3.33-.14-.03-1.35,1.69-1.43,1.75-1.35,1.04-1.98,2.86-4.5,3.22-1.19,.17-2.39-.97-3.13-1.61l-.2-1.42c-.36-2.52-.05-5.57,.87-8.27,1.33-3.75,3.93-6.89,7.78-7.44,2.2-.32,2.55,2.77,3.14,4.23,.53-1.2,1.19-1.2,1.72-1.04,.49,.16,.39,1.07,.14,1.62-.76,1.56-2.52,5.61-2.44,7.8,.05,1.63,.85,2.64,1.99,2.48s3.45-3.07,4.07-3.91c.62-.89,.92-2.05,1.96-3.98,.26-.51,.22-.45,.67-.52,.55-.08,.74,.27,.81,.73,.03,.18,.01,.42,0,.61Zm-12.69-5.57c-2.16,.31-3.85,2.89-4.89,5.76-.94,2.62-1.37,5.49-1.12,7.23,.05,.37,.07,.5,.45,.83l.69-.1c.96-.14,1.95-.79,2.54-1.54,.48-.58,2.75-4,3.12-4.66,.7-1.65,.97-3.65,.73-5.35-.1-.69-.38-2.33-1.53-2.17Z"/><path class="cls-1" d="M140.3,93.62c-.46,.07-1.44,.11-1.79-.4-.24,.64-1.52,3.73-3.16,6.03-.89,1.3-1.76,3.11-2.76,3.25-.6,.09-.72-1.07-1.01-1.49-.03-.51-.78-3.49-.94-3.94-.07-.13-.29-1.69-.25-1.74-.23-1.93-.4-2.75-.68-4.73-.16-1.47-.93-2.91-1.44-4.48-.91-3.1,1.41-2.59,1.85-2.14,.13,.26,.53,1.42,.57,1.65,.15,.4,.72,2.1,.69,2.2,.09,.31,.44,2.75,.49,3.11,.17,1.85,.49,3.39,.95,4.97,.11,.41-.03,1.46,.05,1.68l.02,.47s.32,.89,.35,.84c1.07-1.04,2.15-3.31,2.55-4.07l1.04-2.54c.04-.05,.11-.53,.14-.68-.54-.86-.7-2.57-.8-3.63-.08-.88,.91-6.41,2.7-6.66,.46-.07,1.27,.05,1.56,.43,.34,1.03,.41,1.53,.49,2.46,.14,1.62-.89,4.53-1.29,6.04v.42c.05,.28,.51,.86,.88,.81,2.06-.3,3.76-3.82,5.15-3.92,.46-.07,.77,.17,.84,.63,.15,1.38-4.91,5.25-6.2,5.43Z"/><path class="cls-1" d="M162.11,92.88c-.41,.71-1.97,1.92-2.97,2.16-.86,.22-2.47,.07-2.92-.1-.49-.16-.94-.38-1.31-.65-.2,.22-.13,.07-.25,.55-.64,1.08-.58,.88-1.55,1.91-1.31,1.31-2.37,2.4-4.34,2.68s-3-.97-3.92-2.48l-.2-1.42c-.35-2.43,.24-6.12,1.72-9.19,1.37-2.82,3.47-5.18,6.31-5.59,3.35-.48,4.27,2.99,4.63,5.52,.28,1.97-.81,4.47-1.3,5.62-.1,.29,.61,.66,.81,.77,.3,.14,1.47,.44,1.97,.33,1.09-.25,1.26-.7,1.98-1.83,.53-.87,.46-1.33,.78-2.08,.1-.25,.51-1.01,.81-1.24,.21-.17,.56-.36,.99,.05,.22,.2,.25,1.09,.19,1.33-.5,2.08-.58,2.14-1.44,3.67Zm-12.02-3.47c-.28-.66-.49-2.79-.38-3.93-.61,.65-.88,1.02-1.33,1.83-1.37,2.54-2.09,5.64-1.8,7.7,.08,.55,.26,2.49,1.23,2.35,1.65-.24,2.93-1.12,3.87-2.38,.67-.85,.81-.91,1.24-1.77l-.64-.56c-1.13-1.01-1.59-1.93-2.2-3.24Zm4.83-3.83c-.14-.68-.55-2.17-.64-2.2-.78-.54-.37-.65-1.15-.54-.32,.05-.64,.42-.95,.56-.58,.83-.83,2.69-.28,4.58,.37,1.26,1.18,2.36,2.03,3.08,.06-.24,.49-1.15,.5-1.38,.2-.87,.77-2.5,.63-3.42-.02-.14-.04-.6-.15-.68Z"/><path class="cls-1" d="M176.42,87.17c-.14,1.33-.76,3.15-1.7,4.46-1.17,1.67-3.92,4.36-6.81,4.77-.69,.1-1.12,.02-1.38-.18-.83,.45-.8,.63-1.72,.76-2.02,.29-3.4-1.15-3.66-2.99-.06-.41,.16-.87,.65-1.03,1.89-.55,3.11,1.43,5.13,1.14,2.89-.42,2.79-4.34,2.5-6.35-.08-.55-2.33-4.16-3.25-4.68-.17,.12-.35,.47-.49,.87l-.42,1.28c-.07,.2-.27,.7-.47,1.29-.33,.98-.14,.96-.42,1.65l-.14,.35c-.38,.94-.8,1.61-1.05,1.84-.29,.28-1.05,.48-1.4,.06-.29-.38-.21-1.47-.11-1.76l.3-.56,.62-1.21c.59-1.11,.33-.94,1.14-3.11,.37-.99,.64-1.73,1.05-2.49-.26-.52-.89-.95-1.02-1.91l-.1-1.02c.52-1.25,1.74-2.54,3.07-2.74l.37-.05c.5,.21,1.5,1,1.59,1.64,.27,1.88-1.37,2.87-1.21,3.97v.09c1.05,1.35,2.95,3.51,3.62,5.2,.36,.88,.53,2.69,.52,3.62-.01,.89-.35,1.83-.73,2.73,.9-.93,1.73-1.98,2.08-2.45,.62-.89,.88-2.05,1.96-3.98,.26-.51,.22-.45,.63-.51,.6-.09,.74,.27,.81,.73,.03,.18,.06,.41,.04,.6Zm-10.05-9.33c-.46,.07-.77,.16-.7,.66,.03,.18,.34,1.03,.38,1.02,.45-.49,.58-1.16,.51-1.67,0-.05-.1-.03-.19-.02Z"/></g><g><path class="cls-1" d="M93.12,22.41c-.14,1.33-.78,3.15-1.68,4.44-.63,.84-1.56,1.9-2.6,2.84-.55,.45-2.76,2.02-3.13,2.07-.55,.08-1.91,.03-2.3-.38-.03-.23-.46-.96-.49-1.15-.16-1.19-.09-2.32,.17-3.48,.23-1.01,.56-2.04,.89-3.02,.49-1.52,1.04-2.99,1.21-4.47,.09-.67,.14-1.33,.05-2.02l-.18,.03c-.09,.01-1.57,1.52-2.09,2.16-.6,.74-.93,1.76-1.28,2.61-.28,.65-.62,1.25-.96,1.86-.63,1.16-1.32,2.28-1.75,3.56-.09,.34-.71,2.34-.84,2.69l-1.44,3.1-.47,.34-.14,.02c-.69,.09-1.03-.37-1.11-.92l-.02-.51c1.01-3.83,1.68-7.1,2.65-10.93,.03-.14,.54-1.48,.56-1.67,0-.05,.14-1,.12-1.18l-.23-1c-3.6,4.38-5.97,10.59-8.45,15.61-.3,.56-.33,.65-.83,.72-.64,.09-1.27-.39-1.36-1.03-.17-1.24,.61-2.33,.87-3.49,.08-.43,1.08-3.7,1.2-4.14,.2-.92,.5-1.8,.75-2.67,.35-2.2,.46-4.13,.12-4.18-.52-.07-1.76,2.49-2.43,4.07-.28,.65-.89,2.32-1.19,3.2-.29,.97-.86,1.57-1.11,1.79-.29,.27-.84,.35-1.18-.07-.33-.37-.2-1.47-.1-1.76l.25-.55c.15-.25,.22-.45,.51-1.05,.59-1.11,.61-.97,1.34-3.13,.7-2.06,2.25-4.38,3.81-4.59,.69-.09,1.14,.17,1.55,.39,.25,.15,.66,1.03,.74,1.3,.24,.71,.15,1.43,.08,1.91l-.42,3.05c1.25-.73,3.59-8.49,6.9-8.94,.14-.02,.81-.25,.96,.15l.2,1.42c.16,1.15,.26,1.88,.14,3.06l-.27,2.14c.67-1.59,3.07-4.82,3.57-5.26l2-1.07s.09-.06,.13-.06c.96-.13,1.61,.85,1.73,1.68,.14,1.01,0,2.1-.25,3.26-.73,3.14-2.45,6.65-2.6,9.28-.01,.24,.03,.56,.06,.79,.05,0,.84,.31,.84,.31,.77-.53,1.61-1.2,2.35-1.91,.69-.75,1.38-1.5,1.87-2.36,.73-1.13,1.15-2.5,1.78-3.66,.3-.51,.22-.45,.68-.51,.55-.08,.74,.27,.8,.73,.03,.18,.01,.42,0,.61Z"/><path class="cls-1" d="M107.11,20.48c-.14,1.33-.78,3.15-1.68,4.44-1.77,2.44-4.06,4.44-7.09,4.86-1.38,.19-3.16,.16-4.52-.59-1.46-.73-2.56-2.26-2.71-3.74-.27-3,.21-6.29,2.07-9.35,1.22-1.99,3.08-3.74,5.6-4.09,1.42-.2,2.81,.73,3.01,2.16,.23,1.65-.25,3.26-1.17,4.7-.93,1.39-2.21,2.6-3.68,3.5-.73,.47-2.67,1.68-3.58,2.18-.03,.43-.03,.8,.12,1.2,.12,.54,.99,1.45,1.78,1.72,.1,.03,1.26,.67,2.82,.45,2.39-.61,4.17-2.26,5.62-4.28,.63-.88,.89-2.04,1.93-3.96,.3-.51,.22-.45,.68-.51,.55-.08,.74,.27,.8,.73,.03,.18,.01,.42,0,.61Zm-8.3-6.28c-1.44,.39-2.72,1.31-3.54,2.45-1.07,1.41-2.14,3.47-1.98,4.95-.01,.24-.21,.82,.06,.74,1.61-.5,3.22-2.03,4.18-2.91,1.07-1.04,1.83-2.31,2.37-4.16,.04-.05,.01-.24,0-.28,0-.33-.69-.93-1.09-.78Z"/><path class="cls-1" d="M118.71,18.88c-.14,1.33-.78,3.15-1.72,4.44-1.17,1.66-3.7,3.69-5.91,4.6-.09,.06-.18,.07-.27,.08-1.91,4.1-1.65,14.44-8.44,15.37-2.52,.35-4.26-.72-4.65-3.52-.34-2.43,.36-4.82,1.7-7.01,1.46-2.3,3.08-3.79,5.14-5.1,1.29-.83,2.98-1.11,4.17-1.93,.3-.88,.93-2.42,1.25-4.52l1.18-7.03c.33-2.34,.65-4.44,1.61-4.57,.46-.06,.92-.08,1.18,.44l.17,.91c.03,.23,.07,.88,.08,.92-.01,.24-.53,2.22-.6,2.42-.27,1.11-1.97,9.76-2.19,10.91-.04,.05-.03,.14-.02,.19,1.15-.44,3.27-2.7,3.87-3.48,.63-.88,.89-2.04,1.98-3.96,.26-.5,.22-.45,.63-.51,.6-.08,.74,.27,.8,.73,.03,.18,.06,.41,.04,.6Zm-17.34,15.2c-.52,1.01-1.68,4.44-1.53,5.49,.16,1.15,.82,1.9,1.74,1.77,1.74-.24,3.58-2.18,4.01-3.78l2.23-7.88-.1-.73c-2.61,.36-5.13,2.81-6.35,5.13Zm12.04-27.88c-.96,.13-1.84-.77-1.96-1.65-.24-1.74,1-2.9,2.09-4.17,.2-.26,.42-.34,.7-.38,1.01-.14,1.35,.98,1.46,1.81,.19,1.38-.5,4.14-2.29,4.38Z"/><path class="cls-1" d="M134.38,20.36c-.42,.71-1.98,1.91-2.98,2.14-.86,.21-2.47,.06-2.91-.11-.49-.17-.94-.38-1.31-.66-.2,.21-.13,.06-.25,.55-.65,1.07-.58,.87-1.56,1.9-1.32,1.3-2.38,2.38-4.35,2.66s-2.99-.99-3.9-2.5l-.2-1.42c-.34-2.43,.28-6.11,1.77-9.17,1.39-2.81,3.49-5.16,6.34-5.55,3.35-.46,4.25,3.01,4.6,5.53,.27,1.97-.83,4.46-1.33,5.6-.1,.29,.61,.66,.81,.78,.3,.15,1.47,.45,1.96,.34,1.09-.24,1.26-.69,1.99-1.82,.53-.87,.47-1.33,.79-2.07,.11-.25,.52-1.01,.81-1.23,.21-.17,.56-.36,.99,.05,.22,.2,.24,1.09,.18,1.33-.51,2.08-.59,2.14-1.46,3.66Zm-11.98-3.53c-.28-.66-.48-2.78-.35-3.92-.61,.65-.89,1.01-1.34,1.82-1.38,2.53-2.12,5.62-1.84,7.68,.08,.55,.25,2.49,1.21,2.36,1.65-.23,2.93-1.11,3.88-2.36,.68-.84,.81-.91,1.25-1.76l-.64-.57c-1.12-1.01-1.58-1.93-2.18-3.25Zm4.85-3.8c-.14-.68-.53-2.17-.63-2.2-.78-.55-.37-.65-1.15-.54-.32,.04-.64,.42-.95,.55-.59,.83-.84,2.69-.3,4.57,.36,1.26,1.17,2.36,2.02,3.09,.06-.24,.5-1.14,.51-1.38,.21-.87,.78-2.49,.65-3.41-.02-.14-.04-.6-.14-.68Z"/><path class="cls-1" d="M149.76,14.6c-.14,1.33-.78,3.15-1.68,4.44-1.14,1.56-3.55,4.09-5.63,4.56-.27,.08-.54,.17-.81,.21-1.33,.18-3.01-.15-3.25-1.84-.21-1.51,.07-3.56,.82-5.58,.74-2.07,2.08-4.54,2.92-6.29-1.29,.5-3.01,.51-3.49,.48-.37,.38-.26,.46-.6,1.06-.34,.56-1.51,3.95-1.83,4.69-.64,1.44-.63,2.19-1.73,2.34-.32,.04-1.08-.04-1.07-.65l.02-.84c.52-.96,.46-.76,1.12-2.35,.93-2.09,1.63-3.78,2.19-5.12-.09-.31-.46-.26-.57-.43l-.45-.55c-.33-.37-.39-1.49-.46-1.99-.28-2.06,1.62-4.15,3.82-4.45,.92-.13,1.93,.76,2.05,1.68,.15,1.1,.01,1.45-.27,2.42-.26,.83-.45,1.14-.81,1.89,.48,.07,1.57-.12,2.02-.23,1.04-.28,1.33-1.17,2.53-1.33,.73-.1,1.1,.5,1.17,1.05,.06,.46-.08,.76-.36,1.12l-.12,.16c-.87,1.15-2.88,4.84-3.43,5.99-1.01,2.15-1.7,4.25-1.46,6.04,.09,.64,.74,.65,1.71,.51,1.1-.15,3.6-3.02,4.19-3.85,.63-.88,1.07-2.06,1.98-3.96,.26-.5,.22-.45,.68-.51,.55-.08,.74,.27,.8,.73,.03,.18,.01,.42-.01,.61Zm-12.53-7.8c.06,.46,.82,.87,.87,.86,.41-.43,1.29-2.47,.67-3.27-1.43,.1-1.7,1.22-1.54,2.41Z"/></g><g><path class="cls-1" d="M40.93,33.83c-2.96,3.73-6.62,6.01-11.46,6.31-5.11,.33-7.3-1.62-11.05-5.14-.4-.24-.87-.84-1.07-.45-.49,1.12-2.2,4.81-2.95,5.68-.24,.35-1.99,1.87-2.47,2.2-1.25,.92-3.42,1.46-4.8,1.55-1.89,.15-3.66-.42-5.71-2.34-.72-.71-1.36-2.46-1.42-3.47-.36-5.39,5.31-8.38,10.01-8.71,1.71-.08,3.86,.53,4.97,.98,.05,.04,.1,.04,.14,.03,.18-.02,.26-.21,.37-.5l.88-4.12-.06-.55c.02-.23-.05-.5-.33-.52-.32,.03-.59,.11-.92,.09-4.51,.32-7.91-1.24-11.25-4.37-1.07-.96-1.68-2.89-1.79-4.41-.23-3.59,2.05-6.24,4.36-8.65,.33-.36,.66-.39,1.07-.43,.73-.07,1.57-.07,1.61,.81,.06,1.01-4.93,4.4-4.69,8.13,.15,1.93,1.48,3.6,3.4,4.71,2.03,1.23,4.64,1.89,7.13,1.73,.92-.05,1.98-.15,2.28-.83,.05,0,.18-1.92,.21-2.06,.93-4.96,2.3-10.2,6.32-13.53,.44-.28,1.23-.68,1.66-.96,.3-.22,.8-.31,1.4-.33,1.01-.1,2.22-.04,3.2,0,2.61,.11,3.05,5.35,3.13,6.64-.44,2.92-1.09,4.28-2.53,6.1-2.88,3.63-6.34,5.56-11.14,6.7-.22,1-.56,2.75-.86,4.26l-.6,2.33-.13,.99s1.89,1.29,3.72,2.87c2.11,2.06,4.85,3.45,7.84,3.24,2.4-.15,4.94-1.1,7.01-2.2,1.14-.63,2.43-2.52,3.77-2.61,.46-.05,.74,.02,.79,.52,0,.09-.06,.28-.06,.33Zm-31.28-1.69c-2.99,.21-7.56,2.25-7.28,5.89,.09,1.8,2.33,3.8,4.13,3.66,2.03-.11,4.31-1.37,5.99-3.11,1.55-1.64,2.59-3.74,2.48-5.21-.06-1.06-4.35-1.27-5.32-1.22ZM30.63,9.56c-.01-.6-.12-1.15-.42-1.44-.69-.81-1.59-1.04-2.24-1.02-1.11,.07-1.61,.12-2.66,.78-.37,.45-2.48,2.48-2.7,3.1-.52,1.26-1.48,3.67-1.9,5.9-.31,1.52-1.12,2.66-1.01,4.18,4.56-.28,8.34-3.26,10.14-6.55,.19-.39,.65-2.25,.64-2.34,0,0,.23-1.41,.15-2.61Z"/><path class="cls-1" d="M60.13,28.95c-.19,1.32-.89,3.1-1.87,4.36-1.23,1.61-3.84,4.15-6,4.37h-.05c-1.84,.19-3.15-.83-3.69-3.47-.14-.03-1.41,1.63-1.5,1.68-1.38,.98-2.08,2.76-4.61,3.02-1.19,.12-2.33-1.06-3.05-1.73l-.14-1.42c-.26-2.52,.18-5.54,1.21-8.19,1.48-3.67,4.19-6.69,8.04-7.08,2.2-.22,2.42,2.86,2.94,4.34,.58-1.17,1.23-1.15,1.76-.97,.48,.18,.34,1.08,.07,1.62-.82,1.52-2.74,5.47-2.75,7.65-.02,1.62,.73,2.66,1.88,2.54s3.55-2.91,4.21-3.72c.65-.85,1-2,2.11-3.88,.27-.49,.23-.44,.69-.49,.55-.06,.73,.3,.77,.76,.02,.18,0,.42-.03,.61Zm-12.39-6.07c-2.16,.22-3.94,2.72-5.09,5.53-1.04,2.56-1.58,5.4-1.41,7.14,.04,.37,.05,.5,.41,.84l.69-.07c.96-.1,1.97-.71,2.59-1.42,.5-.56,2.9-3.86,3.3-4.51,.76-1.61,1.12-3.59,.95-5.29-.07-.69-.28-2.34-1.43-2.22Z"/></g><path class="cls-1" d="M188.69,102.22c-1.52,.47-2.51-.03-2.97-1.51-.26-.84-.22-1.62,.14-2.33,.36-.71,.89-1.18,1.61-1.4,1.48-.46,2.45,.07,2.92,1.59,.25,.8,.19,1.56-.16,2.27-.36,.71-.87,1.17-1.55,1.38Zm.7-41.11c.26,.84,.27,2.67,.03,5.47l-1.77,23.81c-.03,.52-.24,.84-.64,.96s-.66,0-.78-.38c-.03-.08-.04-.2-.03-.34l-1.62-27.34c-.09-1.78,.59-2.89,2.05-3.34s2.37-.07,2.76,1.16Z"/><path class="cls-1" d="M107.53,130.92c16.2-9.31,34.05-15.65,52.5-18.65,5.24-.85,10.52-1.41,15.82-1.72,1.6-.09,1.61-2.59,0-2.5-19,1.09-37.7,5.62-55.09,13.34-4.95,2.2-9.79,4.66-14.48,7.36-1.39,.8-.14,2.96,1.26,2.16h0Z"/></svg>