<?xml version="1.0" encoding="UTF-8"?><svg id="a" xmlns="http://www.w3.org/2000/svg" viewBox="0 0 971.58 933.02"><defs><style>.b{fill:none;stroke:#542a14;stroke-miterlimit:10;stroke-width:3px;}.c{fill:#f5e9d1;}.d,.e,.f{fill:#542a14;}.e{font-family:BebasNeueBold, Bebas Neue;}.e,.f{font-size:60.54px;}.f{font-family:BebasNeueRegular, Bebas Neue;}</style></defs><g><path class="c" d="M971.58,466.51c0,50.45-43.38,93.43-58.17,138.95-15.32,47.18-6.01,107.35-34.59,146.62-28.86,39.66-89.16,49.27-128.82,78.13-39.27,28.58-66.88,83.12-114.06,98.43-45.52,14.78-99.71-12.63-150.15-12.63s-104.64,27.41-150.16,12.63c-47.18-15.32-74.79-69.86-114.06-98.44-39.66-28.87-99.95-38.47-128.82-78.13-28.58-39.27-19.27-99.44-34.59-146.61C43.38,559.94,0,516.96,0,466.51s43.38-93.43,58.17-138.95c15.32-47.18,6.01-107.35,34.59-146.62,28.86-39.66,89.16-49.27,128.82-78.13,39.27-28.58,66.88-83.12,114.06-98.43,45.52-14.78,99.71,12.63,150.15,12.63s104.64-27.41,150.16-12.63c47.18,15.32,74.79,69.86,114.06,98.44,39.66,28.87,99.95,38.47,128.82,78.13,28.58,39.27,19.27,99.44,34.59,146.61,14.78,45.52,58.17,88.5,58.17,138.95Z"/><path class="b" d="M605.89,911c-16.7,0-35.03-3.85-54.44-7.91-21.3-4.47-43.32-9.09-65.65-9.09s-44.36,4.62-65.66,9.09c-19.41,4.07-37.75,7.91-54.44,7.91-8.81,0-16.42-1.08-23.26-3.3-23.17-7.52-42.05-28.56-62.04-50.83-14.1-15.71-28.69-31.96-45.86-44.46-17.43-12.69-37.58-21.68-57.06-30.37-27.17-12.12-52.84-23.57-66.91-42.92-13.88-19.07-16.88-46.91-20.05-76.38-2.3-21.32-4.67-43.35-11.4-64.08-6.44-19.82-17.25-38.46-27.71-56.48-15.11-26.04-29.38-50.65-29.38-75.67s14.27-49.62,29.38-75.66c10.46-18.03,21.27-36.66,27.71-56.49,6.73-20.73,9.11-42.77,11.4-64.08,3.17-29.47,6.17-57.31,20.05-76.38,14.08-19.35,39.74-30.8,66.92-42.92,19.48-8.69,39.62-17.68,57.05-30.36,17.18-12.5,31.76-28.75,45.86-44.46,19.99-22.27,38.87-43.31,62.04-50.83,6.84-2.22,14.44-3.3,23.26-3.3,16.7,0,35.03,3.85,54.44,7.91,21.3,4.47,43.32,9.09,65.66,9.09s44.35-4.62,65.66-9.09c19.41-4.07,37.74-7.91,54.44-7.91,8.82,0,16.42,1.08,23.26,3.3,23.17,7.52,42.04,28.56,62.03,50.83,14.1,15.71,28.69,31.97,45.87,44.47,17.43,12.69,37.58,21.67,57.06,30.37,27.17,12.12,52.84,23.57,66.91,42.92,13.88,19.07,16.88,46.91,20.05,76.38,2.3,21.31,4.67,43.35,11.4,64.08,6.44,19.83,17.25,38.46,27.71,56.49,15.11,26.04,29.38,50.64,29.38,75.66s-14.27,49.62-29.39,75.66c-10.45,18.03-21.27,36.66-27.71,56.49-6.73,20.73-9.11,42.77-11.4,64.08-3.17,29.47-6.17,57.31-20.05,76.38-14.08,19.34-39.74,30.79-66.92,42.92-19.48,8.69-39.63,17.68-57.06,30.37-17.18,12.5-31.76,28.75-45.87,44.47-19.99,22.27-38.87,43.31-62.04,50.83-6.84,2.22-14.44,3.3-23.26,3.3Z"/></g><g><g><g><path class="d" d="M274.33,477.48c0,19.13-3.79,35.47-11.36,49.01-7.57,13.55-18.08,23.96-31.53,31.23-13.45,7.27-29.04,11.21-46.77,11.81v-42.14c13.55-.8,24.6-4.98,33.17-12.55,8.56-7.57,12.85-20.32,12.85-38.25v-172.74h43.63v173.64Z"/><path class="d" d="M366.38,530.08c-11.76,0-21.62-3.64-29.59-10.91-7.97-7.27-12.16-16.68-12.55-28.24v-97.73h41.84v82.19c.4,5.78,1.89,10.41,4.48,13.9,2.59,3.49,6.97,5.23,13.15,5.23s11.51-2.09,15.99-6.28,7.97-9.91,10.46-17.18c2.49-7.27,3.74-15.49,3.74-24.66v-53.2h41.84v130.6h-37.96l-3.29-23.91,.6,2.69c-2.99,5.38-6.78,10.16-11.36,14.35-4.59,4.18-10.01,7.42-16.29,9.71-6.28,2.29-13.3,3.44-21.07,3.44Z"/><path class="d" d="M553.76,527.39c-12.15,0-23.16-2.44-33.02-7.32s-17.68-12.4-23.46-22.56c-5.78-10.16-8.67-23.11-8.67-38.85,0-14.74,2.99-27.5,8.97-38.25,5.98-10.76,13.85-19.08,23.61-24.96,9.76-5.87,20.12-8.82,31.08-8.82,12.95,0,22.76,2.14,29.44,6.43,6.67,4.29,12.2,9.02,16.59,14.2l-1.79,5.08,3.88-19.13h38.85v130.6h-41.84v-28.39l3.29,8.97c-.4,0-1.6,1.15-3.59,3.44-1.99,2.29-4.93,4.98-8.82,8.07-3.88,3.09-8.67,5.78-14.35,8.07s-12.4,3.44-20.17,3.44Zm11.96-34.07c4.98,0,9.46-.75,13.45-2.24,3.98-1.49,7.47-3.68,10.46-6.58,2.99-2.89,5.57-6.52,7.77-10.91v-31.98c-1.6-4.38-3.99-8.12-7.17-11.21-3.19-3.09-6.98-5.48-11.36-7.17-4.38-1.69-9.27-2.54-14.64-2.54-5.98,0-11.51,1.55-16.59,4.63-5.08,3.09-9.12,7.32-12.11,12.7s-4.48,11.56-4.48,18.53,1.59,13.25,4.78,18.83c3.19,5.58,7.42,9.97,12.7,13.15,5.28,3.19,11.01,4.78,17.18,4.78Z"/><path class="d" d="M720.23,393.2l3.29,23.31-.6-2.09c4.58-8.17,11.06-14.79,19.43-19.87,8.37-5.08,18.63-7.62,30.78-7.62s22.66,3.64,30.93,10.91c8.27,7.28,12.5,16.69,12.7,28.24v97.73h-41.84v-82.19c-.2-5.78-1.75-10.41-4.63-13.9-2.89-3.48-7.72-5.23-14.49-5.23-6.38,0-11.96,2.09-16.74,6.28-4.78,4.18-8.47,9.86-11.06,17.04-2.59,7.17-3.88,15.44-3.88,24.81v53.2h-41.84v-130.6h37.96Z"/></g><g><g><g><path class="d" d="M366.8,643.23c-.2-.47-.56-.87-1.06-1.11-19.45-9.39-37.66-21.28-54.13-35.35-.91-.78-2.29-.67-3.07,.24-.78,.91-.67,2.29,.24,3.07,16.76,14.3,35.28,26.4,55.06,35.96,1.08,.52,2.39,.07,2.91-1.01,.28-.59,.28-1.24,.04-1.8Z"/><path class="d" d="M371.3,613.47c-.2-.46-.55-.86-1.03-1.1-19.32-9.64-37.38-21.77-53.66-36.05-.9-.79-2.28-.7-3.07,.2-.79,.91-.7,2.28,.2,3.07,16.57,14.52,34.93,26.86,54.59,36.67,1.08,.54,2.38,.1,2.92-.98,.3-.59,.3-1.25,.06-1.82Z"/><path class="d" d="M378.76,633.17c-.21-.49-.59-.9-1.11-1.14-19.66-8.92-38.16-20.37-54.96-34.03-.93-.76-2.31-.62-3.06,.32-.76,.93-.62,2.31,.32,3.06,17.1,13.9,35.91,25.55,55.91,34.62,1.1,.5,2.39,.01,2.88-1.08,.26-.58,.25-1.21,.02-1.75Z"/></g><g><path class="d" d="M579.15,641.17l-22.1,23.41c11.83-3.22,23.45-7.22,34.76-11.98l13.94-23.44c-8.66,4.53-17.53,8.54-26.6,12Z"/><path class="d" d="M538.72,652.75c-.41,.51-1.03,.8-1.67,.82l-21.46,18.94c11.22-1.25,22.37-3.22,33.36-5.85l20.92-22.16c-10.15,3.41-20.53,6.16-31.15,8.26Z"/><path class="d" d="M418.92,649.51l-15.94,11.87c9.41,2.97,18.96,5.43,28.61,7.37l18.19-13.55c-10.29-1.35-20.6-3.26-30.87-5.69Z"/><path class="d" d="M503.17,657.25c-2.62,.15-5.26,.27-7.9,.34-.12,.15-.25,.29-.41,.41l-21.34,15.89c11.5,.52,23.03,.31,34.49-.65l21.33-18.83c-8.58,1.36-17.31,2.31-26.17,2.83Z"/><path class="d" d="M456.01,655.95c-.14,.22-.32,.43-.55,.59l-17.92,13.35c9.61,1.72,19.31,2.92,29.04,3.6l21.21-15.8c-10.51,.01-21.13-.57-31.78-1.75Z"/><path class="d" d="M576.5,637.39c.07-.03,.14-.05,.2-.08,.34-.26,.74-.4,1.15-.44,9.11-3.49,18.01-7.53,26.68-12.12l-24.69-5.9c-9.58,4.13-19.43,7.64-29.46,10.49l25.51,7.74c.22,.07,.42,.18,.6,.3Z"/><path class="d" d="M494.32,653.01s.02,.09,.04,.14c2.86-.07,5.71-.19,8.55-.35,8.77-.51,17.39-1.45,25.88-2.81l-26.13-12.17c-9.73,.72-19.42,.84-29.04,.37l19.91,13.85c.36,.25,.62,.59,.78,.96Z"/><path class="d" d="M457.93,651.67c9.88,1.04,19.74,1.57,29.5,1.56l-22.43-15.61c-8.62-.74-17.18-1.98-25.67-3.68l18.53,17.63s.05,.06,.08,.09Z"/><path class="d" d="M450.56,650.81l-19.32-18.39c-.09-.09-.17-.18-.24-.28-9.03-2.15-17.97-4.84-26.81-8.07l14.94,20.9c10.45,2.51,20.95,4.46,31.43,5.83Z"/><path class="d" d="M569.63,639.86l-27.42-8.32c-10.11,2.5-20.39,4.31-30.72,5.46l24.98,11.63c11.32-2.17,22.38-5.09,33.16-8.78Z"/><path class="d" d="M613.5,624.94c-.11,.27-.26,.52-.46,.72l-14.2,23.88c9.68-4.39,19.11-9.35,28.22-14.84l8.22-23.68c-7.09,5.04-14.35,9.69-21.78,13.92Z"/><path class="d" d="M611.65,604.15c-8.13,5.08-16.44,7.65-25.13,11.71l23.86,5.71c7.91-4.46,15.62-9.39,23.14-14.77l-19.48-3.89c-.82,.35-1.62,.75-2.4,1.24Z"/><path class="d" d="M396.65,622.56c.32,.13,.63,.24,.95,.37,.07,.26,.18,.52,.34,.75l14.5,19.6c-9.14-2.41-27.27-9.14-27.4-9.43-.02-.04-.03-.07-.05-.11l-9.02-18.68,20.68,7.5Z"/><path class="d" d="M382.51,654.01c5.04,2.05,10.13,3.94,15.27,5.67l15.52-11.56c-9.86-2.53-19.66-5.56-29.36-9.07-.14,.16-.29,.3-.47,.42l-13.94,9.32,12.98,5.21Z"/></g><path class="d" d="M636.08,606.97c-.71-.98-.49-2.34,.49-3.04,13.42-9.71,25.76-20.7,36.94-32.74l1.06,5.24c-10.8,11.36-22.64,21.76-35.44,31.03-.98,.71-2.34,.49-3.04-.49Z"/></g><g><g><path class="d" d="M609.3,268.77c.2,.47,.56,.87,1.06,1.11,19.45,9.39,37.66,21.28,54.13,35.35,.91,.78,2.29,.67,3.07-.24,.78-.91,.67-2.29-.24-3.07-16.76-14.3-35.28-26.4-55.06-35.96-1.08-.52-2.38-.07-2.91,1.01-.28,.59-.28,1.24-.04,1.8Z"/><path class="d" d="M604.81,298.53c.2,.46,.55,.86,1.03,1.1,19.32,9.65,37.38,21.77,53.66,36.05,.9,.79,2.28,.7,3.07-.2,.79-.91,.7-2.28-.2-3.07-16.57-14.52-34.93-26.86-54.59-36.67-1.08-.54-2.38-.1-2.92,.98-.3,.59-.3,1.25-.06,1.82Z"/><path class="d" d="M597.34,278.83c.21,.49,.59,.9,1.11,1.14,19.66,8.92,38.16,20.37,54.96,34.03,.93,.76,2.31,.62,3.06-.32,.76-.93,.62-2.31-.32-3.06-17.1-13.9-35.91-25.55-55.91-34.62-1.1-.5-2.39-.01-2.88,1.08-.26,.58-.25,1.21-.02,1.75Z"/></g><g><path class="d" d="M396.95,270.83l22.1-23.41c-11.83,3.22-23.45,7.22-34.76,11.98l-13.94,23.44c8.66-4.54,17.53-8.54,26.6-12Z"/><path class="d" d="M437.38,259.25c.41-.51,1.03-.8,1.67-.82l21.46-18.94c-11.22,1.25-22.37,3.22-33.36,5.86l-20.92,22.16c10.15-3.41,20.53-6.16,31.15-8.26Z"/><path class="d" d="M557.18,262.49l15.94-11.87c-9.41-2.97-18.96-5.43-28.61-7.37l-18.19,13.55c10.29,1.35,20.6,3.26,30.87,5.69Z"/><path class="d" d="M472.93,254.76c2.62-.15,5.26-.27,7.9-.34,.12-.15,.25-.29,.41-.41l21.34-15.89c-11.5-.52-23.03-.31-34.49,.65l-21.33,18.83c8.59-1.36,17.31-2.31,26.17-2.83Z"/><path class="d" d="M520.09,256.05c.14-.22,.32-.43,.55-.59l17.92-13.35c-9.61-1.72-19.31-2.92-29.03-3.6l-21.21,15.8c10.51-.01,21.13,.57,31.78,1.75Z"/><path class="d" d="M399.6,274.61c-.07,.03-.14,.05-.2,.07-.34,.26-.74,.4-1.15,.44-9.11,3.49-18.01,7.53-26.68,12.12l24.69,5.91c9.58-4.13,19.43-7.64,29.46-10.49l-25.52-7.74c-.22-.07-.42-.18-.6-.3Z"/><path class="d" d="M481.78,259s-.02-.09-.04-.13c-2.86,.07-5.71,.19-8.55,.35-8.77,.51-17.39,1.45-25.88,2.8l26.13,12.17c9.73-.72,19.42-.84,29.04-.38l-19.91-13.85c-.36-.25-.62-.59-.78-.96Z"/><path class="d" d="M518.17,260.34c-9.88-1.04-19.74-1.56-29.5-1.56l22.43,15.61c8.62,.74,17.18,1.98,25.67,3.68l-18.53-17.63s-.05-.06-.08-.09Z"/><path class="d" d="M525.54,261.2l19.32,18.39c.09,.09,.17,.18,.24,.28,9.02,2.15,17.97,4.84,26.81,8.07l-14.94-20.9c-10.45-2.51-20.95-4.46-31.43-5.83Z"/><path class="d" d="M406.47,272.15l27.42,8.32c10.11-2.5,20.39-4.31,30.72-5.46l-24.98-11.63c-11.32,2.17-22.38,5.09-33.16,8.78Z"/><path class="d" d="M362.6,287.07c.11-.27,.26-.51,.46-.72l14.2-23.88c-9.68,4.39-19.11,9.35-28.22,14.84l-8.22,23.68c7.09-5.04,14.35-9.69,21.78-13.92Z"/><path class="d" d="M364.45,307.85c8.13-5.08,16.44-7.65,25.13-11.71l-23.86-5.71c-7.91,4.46-15.62,9.39-23.14,14.77l19.48,3.89c.82-.35,1.62-.75,2.4-1.24Z"/><path class="d" d="M579.46,289.45c-.32-.13-.63-.24-.95-.37-.07-.26-.18-.52-.34-.75l-14.5-19.61c9.14,2.41,27.27,9.14,27.4,9.43,.02,.04,.03,.07,.05,.11l9.02,18.68-20.68-7.5Z"/><path class="d" d="M593.59,257.99c-5.04-2.05-10.13-3.94-15.27-5.67l-15.52,11.56c9.86,2.53,19.66,5.56,29.36,9.07,.14-.16,.29-.3,.47-.42l13.94-9.32-12.98-5.21Z"/></g><path class="d" d="M340.02,305.04c.71,.98,.49,2.34-.49,3.04-13.42,9.71-25.76,20.7-36.94,32.74l-1.06-5.24c10.8-11.36,22.64-21.76,35.45-31.03,.97-.71,2.34-.49,3.04,.49Z"/></g></g></g><g><text class="e" transform="translate(248.78 264.93) rotate(-49.24)"><tspan x="0" y="0">l</tspan></text><text class="e" transform="translate(269.73 241.38) rotate(-42.95)"><tspan x="0" y="0">a</tspan></text><text class="e" transform="translate(296.23 217.64) rotate(-36.46)"><tspan x="0" y="0">s</tspan></text><text class="e" transform="translate(323.91 198.17) rotate(-31.34)"><tspan x="0" y="0"> </tspan></text><text class="e" transform="translate(341.37 187.5) rotate(-25.27)"><tspan x="0" y="0">m</tspan></text><text class="e" transform="translate(381.17 169.83) rotate(-18)"><tspan x="0" y="0">e</tspan></text><text class="e" transform="translate(412.95 160.09) rotate(-11.46)"><tspan x="0" y="0">d</tspan></text><text class="e" transform="translate(448.22 153.81) rotate(-5.95)"><tspan x="0" y="0">i</tspan></text><text class="e" transform="translate(470.86 151.77) rotate(-.93)"><tspan x="0" y="0">a</tspan></text><text class="e" transform="translate(506.42 152.08) rotate(5.75)"><tspan x="0" y="0">l</tspan></text><text class="e" transform="translate(537.72 155.74) rotate(12.04)"><tspan x="0" y="0">u</tspan></text><text class="e" transform="translate(571.81 163.62) rotate(18.85)"><tspan x="0" y="0">n</tspan></text><text class="e" transform="translate(606.38 176.15) rotate(25.71)"><tspan x="0" y="0">a</tspan></text><text class="e" transform="translate(638.15 192.21) rotate(32.24)"><tspan x="0" y="0">s</tspan></text><text class="e" transform="translate(666.32 210.92) rotate(37.36)"><tspan x="0" y="0"> </tspan></text><text class="e" transform="translate(682.56 223.52) rotate(42.65)"><tspan x="0" y="0">d</tspan></text><text class="e" transform="translate(708.34 248.2) rotate(49.11)"><tspan x="0" y="0">e</tspan></text><text class="f" transform="translate(173.39 629.7) rotate(59.77)"><tspan x="0" y="0">p</tspan></text><text class="f" transform="translate(192.37 660.94) rotate(53.62)"><tspan x="0" y="0">a</tspan></text><text class="f" transform="translate(217.13 693.08) rotate(47.17)"><tspan x="0" y="0">n</tspan></text><text class="f" transform="translate(244.78 721.69) rotate(40.72)"><tspan x="0" y="0">a</tspan></text><text class="f" transform="translate(276.08 747.47) rotate(34.32)"><tspan x="0" y="0">d</tspan></text><text class="f" transform="translate(308.61 768.65) rotate(28.23)"><tspan x="0" y="0">e</tspan></text><text class="f" transform="translate(341.26 785.34) rotate(22.11)"><tspan x="0" y="0">r</tspan></text><text class="f" transform="translate(377.03 798.85) rotate(17.05)"><tspan x="0" y="0">í</tspan></text><text class="f" transform="translate(400.09 805.62) rotate(11.85)"><tspan x="0" y="0">a</tspan></text><text class="f" transform="translate(439.41 812.83) rotate(6.68)"><tspan x="0" y="0"> </tspan></text><text class="f" transform="translate(463.07 815.3) rotate(1.64)"><tspan x="0" y="0">&amp;</tspan></text><text class="f" transform="translate(502.12 815.46) rotate(-3.34)"><tspan x="0" y="0"> </tspan></text><text class="f" transform="translate(525.75 813.76) rotate(-8.25)"><tspan x="0" y="0">c</tspan></text><text class="f" transform="translate(563.15 807.54) rotate(-14.45)"><tspan x="0" y="0">o</tspan></text><text class="f" transform="translate(600.27 797.15) rotate(-20.82)"><tspan x="0" y="0">n</tspan></text><text class="f" transform="translate(636.97 782.24) rotate(-26.91)"><tspan x="0" y="0">f</tspan></text><text class="f" transform="translate(667.66 765.74) rotate(-31.66)"><tspan x="0" y="0">i</tspan></text><text class="f" transform="translate(687.78 752.93) rotate(-36.49)"><tspan x="0" y="0">t</tspan></text><text class="f" transform="translate(716.71 730.59) rotate(-42.36)"><tspan x="0" y="0">e</tspan></text><text class="f" transform="translate(743.27 705.39) rotate(-48.4)"><tspan x="0" y="0">r</tspan></text><text class="f" transform="translate(767.94 676.19) rotate(-53.4)"><tspan x="0" y="0">i</tspan></text><text class="f" transform="translate(782.03 656.73) rotate(-58.55)"><tspan x="0" y="0">a</tspan></text></g></g></svg>